<?xml version="1.0" encoding="UTF-8"?><svg id="b" xmlns="http://www.w3.org/2000/svg" xmlns:xlink="http://www.w3.org/1999/xlink" viewBox="0 0 199.49 133.07"><defs><style>.e{clip-path:url(#d);}.e,.f{fill:none;}.g{fill:#1d1d1b;}</style><clipPath id="d"><rect class="f" width="199.49" height="133.07"/></clipPath></defs><g id="c"><g class="e"><path class="g" d="m97.89,15.77h-12.67v12.53c2.33-.31,4.63-.93,6.62-1.94v-8.25h0s6.06,0,6.06,0h.95c.42,0,.83.01,1.25.03.09,0,.18,0,.27.01.38.02.76.04,1.14.07.03,0,.07,0,.1,0,.41.04.82.08,1.22.14.08.01.15.02.23.03.35.05.7.11,1.05.17.06,0,.11.02.17.03.4.07.79.16,1.17.25.06.01.11.03.16.04.34.08.68.17,1.01.27.06.02.12.03.18.05.38.11.75.23,1.12.36.02,0,.03.01.05.02.35.12.69.26,1.03.4.06.02.11.05.17.07.41.18.81.36,1.21.56.28.14.55.29.82.44.05.03.09.05.14.08.64.38,1.25.79,1.82,1.24.03.03.06.05.1.08.27.22.54.45.79.68,0,0,.02.01.02.02.27.25.53.51.77.78.02.02.03.04.05.06.23.25.44.51.65.78.02.03.04.05.06.08.22.29.42.59.62.89,1.22,1.95,1.92,4.26,1.92,6.96,0,3.8-1.4,6.85-3.7,9.17-.1.1-.19.2-.29.29.36.88.66,1.79.89,2.74,0,0,0,0,0,.01.08.32.15.64.21.96,0,.01,0,.03,0,.04.04.19.07.39.1.59.19-.08.38-.16.56-.24.18-.08.36-.17.54-.25.17-.08.33-.17.5-.26.33-.18.65-.36.97-.56.1-.06.2-.12.29-.19.21-.14.42-.28.62-.42,0,0,0,0,0,0,1.01-.73,1.93-1.55,2.71-2.48,2.27-2.69,3.41-5.95,3.41-9.78s-1.01-6.83-3-9.37c0,0,0,0,.01,0-.19-.25-.39-.49-.6-.72l-.04-.05c-.19-.21-.39-.42-.59-.62-.04-.03-.07-.07-.11-.11-.19-.18-.38-.35-.58-.53-.06-.05-.11-.1-.16-.15-.21-.18-.43-.35-.65-.52-.04-.03-.07-.06-.11-.09-.85-.63-1.95-1.2-3.24-1.7-1.5-.58-3.24-1.06-5.1-1.45-3.9-.82-8.3-1.23-12.01-1.23h-.85Z"/><path class="g" d="m125.08,53.96c-1.17-1.17-2.51-2.17-4.02-3.01,0,0,0,0,0,0-.3-.16-.6-.32-.91-.47-.07-.04-.15-.07-.23-.11-.24-.11-.47-.22-.72-.32-.1-.04-.2-.08-.3-.12-.24-.1-.47-.19-.72-.28-.09-.03-.19-.07-.28-.1-.33-.12-.66-.23-1-.33,0,0-.01,0-.02,0-.35-.11-.71-.21-1.07-.3-.07-.02-.14-.03-.22-.05.02.42.04.84.04,1.27,0,.05,0,.1,0,.16,0,.3,0,.6-.02.89,0,.15-.02.29-.03.44-.01.2-.03.41-.05.61-.01.16-.03.32-.04.48-.01.12-.03.24-.05.37,1.17.69,2.23,1.49,3.15,2.38,2.63,2.55,4.2,5.93,4.2,10.15,0,10.64-9.94,15.96-21.81,15.96h-9.15v-31.92h9.15c.42,0,.84,0,1.25.02.11,0,.21,0,.32.01.02,0,.04,0,.07,0,0-.26-.01-.51-.03-.76,0-.09-.02-.17-.03-.26-.02-.21-.04-.43-.07-.63-.01-.09-.03-.18-.05-.27-.03-.2-.07-.4-.11-.59,0-.03-.01-.05-.02-.07-.12.01-.23.02-.35.04-.23.02-.45.05-.68.06-.14.01-.27.02-.41.03-.23.01-.46.03-.69.04-.13,0-.26.01-.38.02-.31.01-.63.02-.94.02-.04,0-.08,0-.12,0h-6.91v-9.4c-2.14-.59-4.4-.9-6.62-1v46.99h15.77c7.85,0,17.95-1.59,22.3-4.77,4.34-3.17,6.51-7.57,6.52-13.2v-.08c0-4.78-1.58-8.74-4.72-11.88"/><path class="g" d="m108.78,39.14c-.05-.05-.09-.1-.14-.16-.24-.27-.48-.53-.73-.79,0,0,0,0,0,0-3.15-3.14-7.51-5.07-13.09-5.79v-.58c4.09-.97,7.27-2.81,9.54-5.5,1.01-1.2,1.79-2.52,2.35-3.95-1.8-.57-4.28-1.02-6.42-1.16-1.3,3.93-4.42,6.74-8.46,8.42-2.01.84-4.25,1.4-6.62,1.68-1.19.14-2.4.21-3.64.21h-6.91V2.33h7.01c8.62,0,16.46,3.49,18.67,10.47,2.01.07,4.91.22,7.14.48-.67-3.65-2.51-6.62-5.55-8.9C98.03,1.46,88.58,0,81.58,0h-13.53v68.12h14.74v-2.34h-8.12v-31.92h9.15c.47,0,.94.01,1.4.03,2.31.08,4.54.38,6.62.88,3.9.94,7.28,2.61,9.71,5.02.03.03.06.06.1.1.16.16.32.33.47.5.03.03.06.07.09.1.17.2.34.39.5.6,0,0,0,0,0,0,.35.44.67.91.96,1.39,1.25,2.07,1.95,4.51,1.95,7.33,0,7.27-4.64,12.05-11.36,14.36v3.1c4.85-.77,9.32-2.08,11.85-3.93,4.34-3.17,6.51-7.57,6.52-13.2v-.08c0-4.31-1.3-7.96-3.85-10.93"/><path class="g" d="m193.88,111.9v-10.18h5.61v-1.53h-13.04v1.53h5.61v10.18h1.83Zm-13.71,0v-1.53h-9.95v-3.78h8.27v-1.53h-8.27v-3.36h9.95v-1.51h-11.8v11.72h11.8Zm-20.14-11.72h-1.83v11.72h1.83v-11.72Zm-8.67,0h-2.33l-8.57,6.61v-6.61h-1.83v11.72h1.83v-3.09l3.74-2.9,5.17,5.98h2.23l-6.09-7.1,5.86-4.62Zm-22.72,5.92c0,3.44-2.37,4.56-4.75,4.56s-4.7-1.11-4.7-4.56v-5.92h-1.83v5.92c0,4.39,3.02,6.11,6.53,6.11s6.57-1.72,6.57-6.11v-5.92h-1.83v5.92Zm-23.83-4.39c1.2,0,2.37.21,2.37,1.62s-1.13,1.7-2.35,1.7h-5.94v-3.32h5.92Zm.69,4.85c1.58,0,2.77.34,2.77,1.91s-1.28,1.91-2.79,1.91h-6.59v-3.82h6.61Zm-.02,5.33c3.02,0,4.72-.88,4.72-3.4,0-1.74-1.26-2.86-2.71-2.98.86-.23,1.62-1.05,1.62-2.23,0-2.58-1.93-3.11-4.31-3.11h-7.75v11.72h8.42Zm-32.34,0v-4.47l6.53-7.24h-2.35l-5.08,5.77-5.06-5.77h-2.33l6.49,7.24v4.47h1.81Zm-23.58-2.94l1.76-1.2v4.14h11.05v-1.53h-9.22v-3.84l2.48-1.68v-1.72l-2.48,1.68v-4.62h-1.83v5.86l-1.76,1.2v1.72Zm-12.72-6.03l2.9,4.51h-5.82l2.92-4.51Zm5.78,8.97h2.06l-7.83-11.93-7.81,11.93h2.04l1.87-2.9h7.81l1.87,2.9Zm-20.1-11.72h-1.83v11.72h1.83v-11.72Zm-14.76,1.53c1.2,0,2.37.21,2.37,1.62s-1.13,1.7-2.35,1.7H1.83v-3.32h5.92Zm.69,4.85c1.57,0,2.77.34,2.77,1.91s-1.28,1.91-2.79,1.91H1.83v-3.82h6.61Zm-.02,5.33c3.02,0,4.72-.88,4.72-3.4,0-1.74-1.26-2.86-2.71-2.98.86-.23,1.62-1.05,1.62-2.23,0-2.58-1.93-3.11-4.3-3.11H0v11.72h8.42Z"/><path class="g" d="m153.4,130.3h1.08v-3.84c.37-.64.94-1.04,1.74-1.04.13,0,.28.01.42.05v-1.07c-.13-.04-.26-.05-.38-.05-.7,0-1.34.35-1.75.92h-.02v-.87h-1.08v5.9Zm-5.91-5.06c.71,0,1.57.4,1.67,1.57h-3.48c.19-1.09,1.03-1.57,1.81-1.57m2.68,2.42c.02-.14.04-.36.04-.54,0-1.85-1.25-2.86-2.69-2.86-1.58,0-2.94,1.22-2.94,3.08s1.37,3.08,3.19,3.08c.77,0,1.59-.22,2.11-.55v-1.15c-.54.41-1.22.73-2.04.73-1.16,0-2.03-.64-2.18-1.8h4.51Zm-13.94,2.64h1.08v-4.04c.42-.56,1.18-.98,1.85-.98.32,0,.71.1.95.38.19.23.28.59.28,1.2v3.44h1.08v-3.65c0-.91-.17-1.37-.49-1.74-.37-.42-.92-.65-1.57-.65-.83,0-1.55.37-2.07.89h-.02v-.75h-1.08v5.9Zm-8.72,0h1.08v-4.04c.42-.56,1.18-.98,1.85-.98.32,0,.71.1.95.38.19.23.28.59.28,1.2v3.44h1.08v-3.65c0-.91-.17-1.37-.49-1.74-.37-.42-.92-.65-1.57-.65-.83,0-1.55.37-2.07.89h-.02v-.75h-1.08v5.9Zm-6.23-.83c-.64,0-1.13-.29-1.13-.86,0-.7.72-.91,1.45-.91.37,0,.83.06,1.15.16v1.11c-.36.29-.91.52-1.48.52m-.19.96c.79,0,1.48-.34,1.81-.65h.02c.23.42.67.62,1.14.62.23,0,.43-.05.58-.11v-.9c-.1.05-.23.09-.35.09-.32,0-.46-.27-.46-.62v-2.51c0-.73-.24-1.24-.59-1.55-.42-.38-1.04-.54-1.76-.54-.88,0-1.51.23-1.97.5v1.06c.44-.33,1.07-.59,1.81-.59.5,0,.86.12,1.09.32.23.22.34.54.34.97v.49c-.38-.1-.8-.16-1.26-.16-.61,0-1.21.11-1.66.39-.47.3-.78.78-.78,1.44,0,.58.24,1.02.62,1.31.4.3.93.42,1.41.42m-6.23-.13h1.08v-9.17h-1.08v9.17Zm-7.73-1.22v-3.3c.42-.35,1-.54,1.52-.54,1.18,0,1.94.97,1.94,2.17s-.79,2.08-1.97,2.08c-.58,0-1.13-.2-1.5-.41m0,1.04h.02c.37.17.86.31,1.45.31,1.71,0,3.08-1.21,3.08-3.11s-1.27-3.06-2.86-3.06c-.7,0-1.27.24-1.68.53h-.02v-.4h-1.08v8.54h1.08v-2.82Zm-13.76-2.83c0-1.15.76-2.07,1.94-2.07.54,0,1.12.18,1.49.41v3.25c-.36.29-.94.48-1.48.48-1.17,0-1.96-.89-1.96-2.08m-.32,5.34c.49.25,1.15.44,1.87.44,1.81,0,2.96-1.07,2.96-2.8v-5.86l-1.04.18c-.4-.19-.89-.34-1.5-.34-1.92,0-3.06,1.43-3.06,3.1s1.28,2.95,2.89,2.95c.62,0,1.2-.18,1.61-.45h.02v.44c0,1.12-.76,1.79-1.89,1.79-.66,0-1.31-.24-1.87-.61v1.15Zm-9.12-2.33h1.08v-4.04c.42-.56,1.18-.98,1.85-.98.32,0,.71.1.95.38.19.23.28.59.28,1.2v3.44h1.08v-3.65c0-.91-.17-1.37-.49-1.74-.37-.42-.92-.65-1.57-.65-.83,0-1.55.37-2.07.89h-.02v-.75h-1.08v5.9Zm-4.58,0h1.08v-5.9h-1.08v5.9Zm-.22-7.93c0,.42.34.76.76.76s.75-.34.75-.76-.34-.75-.75-.75-.76.34-.76.75m-7.86,5.02c0-1.21.78-2.16,2.03-2.16.53,0,1.06.17,1.45.37v3.37c-.42.29-.95.5-1.54.5-1.21,0-1.94-.91-1.94-2.09m-1.09.06c0,1.82,1.29,2.99,2.89,2.99.71,0,1.26-.23,1.66-.5h.02v.37h1.08v-9.17h-1.08v3.43h-.02c-.39-.16-.83-.3-1.42-.3-1.86,0-3.13,1.37-3.13,3.18m-7.73-.06c0-1.21.78-2.16,2.03-2.16.53,0,1.06.17,1.45.37v3.37c-.42.29-.95.5-1.54.5-1.21,0-1.94-.91-1.94-2.09m-1.09.06c0,1.82,1.29,2.99,2.89,2.99.71,0,1.26-.23,1.66-.5h.02v.37h1.08v-9.17h-1.08v3.43h-.02c-.38-.16-.83-.3-1.42-.3-1.86,0-3.13,1.37-3.13,3.18m-5.56-2.21c.71,0,1.57.4,1.67,1.57h-3.48c.19-1.09,1.03-1.57,1.81-1.57m2.67,2.42c.02-.14.04-.36.04-.54,0-1.85-1.25-2.86-2.69-2.86-1.58,0-2.94,1.22-2.94,3.08s1.37,3.08,3.19,3.08c.77,0,1.58-.22,2.11-.55v-1.15c-.54.41-1.22.73-2.04.73-1.17,0-2.03-.64-2.19-1.8h4.51Zm-15.12,2.64h1.08l.92-2.53c.2-.54.41-1.14.58-1.66h.02c.17.52.37,1.12.57,1.66l.92,2.53h1.07l2.05-5.9h-1.13l-.88,2.64c-.2.61-.4,1.21-.58,1.81h-.02c-.2-.6-.42-1.21-.65-1.82l-.97-2.63h-.77l-.97,2.63c-.22.59-.44,1.22-.65,1.82h-.02c-.19-.61-.38-1.21-.59-1.82l-.88-2.63h-1.18l2.05,5.9Z"/></g></g></svg>