<?xml version="1.0" encoding="UTF-8"?><svg id="b" xmlns="http://www.w3.org/2000/svg" xmlns:xlink="http://www.w3.org/1999/xlink" viewBox="0 0 61.75 83.89"><defs><style>.e{clip-path:url(#d);}.e,.f{fill:none;}.g{fill:#1d1d1b;}</style><clipPath id="d"><rect class="f" width="61.75" height="83.89"/></clipPath></defs><g id="c"><g class="e"><path class="g" d="m29.84,15.77h-12.67v12.53c2.33-.31,4.63-.93,6.62-1.94v-8.25h0s6.06,0,6.06,0h.95c.42,0,.83.01,1.25.03.09,0,.18,0,.27.01.38.02.76.04,1.14.07.03,0,.06,0,.1,0,.41.04.82.08,1.22.14.08.01.16.02.23.03.35.05.7.11,1.05.17.06,0,.11.02.17.03.4.07.79.16,1.17.25.06.01.11.03.16.04.34.08.68.17,1.01.27.06.02.12.03.18.05.38.11.76.23,1.12.36.02,0,.03.01.05.02.35.12.69.26,1.03.4.06.02.11.05.17.07.41.18.81.36,1.21.56.28.14.55.29.82.44.05.03.09.05.14.08.64.38,1.25.79,1.82,1.24.03.03.06.05.1.08.27.22.54.45.79.68,0,0,.02.01.02.02.27.25.53.51.77.78.02.02.03.04.05.06.23.25.44.51.65.78.02.03.04.05.06.08.22.29.42.59.62.89,1.22,1.95,1.92,4.26,1.92,6.96,0,3.8-1.4,6.85-3.7,9.17-.1.1-.19.2-.29.29.36.88.66,1.79.9,2.74,0,0,0,0,0,0,.08.32.15.64.21.96,0,.01,0,.03,0,.04.04.19.07.39.1.59.19-.08.38-.16.56-.24.18-.08.36-.17.54-.25.17-.08.33-.17.5-.26.33-.18.65-.36.97-.56.1-.06.2-.12.29-.19.21-.14.42-.28.62-.42,0,0,0,0,0,0,1.01-.73,1.92-1.55,2.71-2.48,2.27-2.69,3.41-5.95,3.41-9.78s-1.01-6.83-2.99-9.37c0,0,0,0,.01,0-.19-.25-.39-.49-.6-.72-.01-.02-.03-.03-.04-.05-.19-.21-.39-.42-.59-.62-.04-.03-.07-.07-.11-.11-.19-.18-.38-.35-.58-.53-.06-.05-.11-.1-.16-.15-.21-.18-.43-.35-.65-.52-.04-.03-.07-.06-.11-.09-.85-.63-1.95-1.2-3.24-1.7-1.5-.58-3.24-1.06-5.1-1.45-3.9-.82-8.3-1.23-12.01-1.23h-.85Z"/><path class="g" d="m57.03,53.96c-1.17-1.17-2.51-2.17-4.02-3.01,0,0,0,0,0,0-.3-.16-.6-.32-.91-.47-.07-.04-.15-.07-.23-.11-.24-.11-.47-.22-.72-.32-.1-.04-.2-.08-.3-.12-.24-.1-.47-.19-.72-.28-.09-.03-.19-.07-.28-.1-.33-.12-.66-.23-1-.33,0,0-.01,0-.02,0-.35-.11-.71-.21-1.07-.3-.07-.02-.15-.03-.22-.05.02.42.04.84.04,1.27,0,.05,0,.1,0,.16,0,.3,0,.6-.02.89,0,.15-.02.29-.03.44-.01.2-.03.41-.05.61-.01.16-.03.32-.04.48-.01.12-.03.24-.05.36,1.17.69,2.23,1.49,3.15,2.38,2.63,2.55,4.2,5.93,4.2,10.15,0,10.64-9.94,15.96-21.81,15.96h-9.15v-31.92h9.15c.42,0,.84,0,1.25.02.11,0,.21,0,.32.01.02,0,.04,0,.07,0,0-.26-.01-.51-.03-.76,0-.09-.02-.17-.03-.26-.02-.21-.04-.42-.07-.63-.01-.09-.03-.18-.05-.27-.03-.2-.07-.4-.11-.59,0-.03-.01-.05-.02-.07-.12.01-.23.03-.35.04-.23.02-.45.04-.68.06-.14.01-.27.02-.41.03-.23.01-.46.03-.69.04-.13,0-.26.01-.38.02-.31.01-.63.02-.94.02-.04,0-.08,0-.12,0h-6.91v-9.4c-2.14-.59-4.4-.9-6.62-1v46.99h15.77c7.85,0,17.95-1.59,22.3-4.77,4.34-3.17,6.51-7.57,6.52-13.2v-.08c0-4.78-1.58-8.74-4.72-11.88"/><path class="g" d="m40.73,39.14c-.05-.05-.09-.1-.14-.16-.24-.27-.48-.53-.73-.79,0,0,0,0,0,0-3.15-3.14-7.51-5.07-13.09-5.79v-.58c4.09-.97,7.27-2.81,9.54-5.5,1.01-1.2,1.79-2.52,2.35-3.95-1.8-.57-4.28-1.02-6.42-1.16-1.3,3.93-4.42,6.74-8.45,8.42-2.01.84-4.26,1.4-6.62,1.68-1.19.14-2.4.21-3.64.21h-6.91V2.33h7.01c8.62,0,16.46,3.49,18.66,10.47,2.01.07,4.91.22,7.14.48-.67-3.65-2.51-6.62-5.55-8.9C29.98,1.46,20.53,0,13.53,0H0v68.12h14.74v-2.34H6.62v-31.92h9.15c.47,0,.94.01,1.4.03,2.31.08,4.54.38,6.62.88,3.9.94,7.28,2.61,9.71,5.02.03.03.06.06.1.1.16.16.32.33.47.5.03.03.06.07.09.1.17.2.34.4.5.6,0,0,0,0,0,0,.35.44.67.91.96,1.39,1.25,2.07,1.95,4.51,1.95,7.33,0,7.27-4.64,12.05-11.36,14.36v3.1c4.85-.77,9.32-2.08,11.85-3.93,4.34-3.17,6.51-7.57,6.52-13.2v-.08c0-4.31-1.3-7.96-3.85-10.93"/></g></g></svg>